<svg width="1080" height="1080" viewBox="0 0 1080 1080" xmlns="http://www.w3.org/2000/svg"><g><rect x="0" y="0" width="1080" height="1080" fill="#FFF6E5"></rect><circle cx="20" cy="30" r="4" fill="#F0DDB8" opacity="0.7"></circle><circle cx="277" cy="427" r="6" fill="#F0DDB8" opacity="0.7"></circle><circle cx="534" cy="824" r="8" fill="#F0DDB8" opacity="0.7"></circle><circle cx="791" cy="401" r="4" fill="#F0DDB8" opacity="0.7"></circle><circle cx="1048" cy="798" r="6" fill="#F0DDB8" opacity="0.7"></circle><circle cx="265" cy="375" r="8" fill="#F0DDB8" opacity="0.7"></circle><circle cx="522" cy="772" r="4" fill="#F0DDB8" opacity="0.7"></circle><circle cx="779" cy="349" r="6" fill="#F0DDB8" opacity="0.7"></circle><circle cx="1036" cy="746" r="8" fill="#F0DDB8" opacity="0.7"></circle><circle cx="253" cy="323" r="4" fill="#F0DDB8" opacity="0.7"></circle><circle cx="510" cy="720" r="6" fill="#F0DDB8" opacity="0.7"></circle><circle cx="767" cy="297" r="8" fill="#F0DDB8" opacity="0.7"></circle><circle cx="1024" cy="694" r="4" fill="#F0DDB8" opacity="0.7"></circle><circle cx="241" cy="271" r="6" fill="#F0DDB8" opacity="0.7"></circle></g><text x="540" y="84" text-anchor="middle" font-family="&#x27;Baloo 2&#x27;, &#x27;Comic Neue&#x27;, &#x27;Chalkboard SE&#x27;, &#x27;Trebuchet MS&#x27;, sans-serif" font-size="56" font-weight="800" fill="#2B2D42">One scenario, changing sheets</text><g transform="translate(600 485) scale(1) translate(-600 -485)"><g opacity="1"><g><text x="93" y="169" text-anchor="middle" font-family="&#x27;Baloo 2&#x27;, &#x27;Comic Neue&#x27;, &#x27;Chalkboard SE&#x27;, &#x27;Trebuchet MS&#x27;, sans-serif" font-size="27" font-weight="800" fill="#376CAD">Backlog</text><rect x="49" y="184" width="96" height="337" rx="18" fill="none" stroke="#376CAD" stroke-width="5"></rect><g opacity="0" transform="translate(58 200)"><rect width="78" height="50" rx="10" fill="#FFFDF7" stroke="#376CAD" stroke-width="4"></rect><text x="16" y="33" text-anchor="start" font-family="&#x27;Baloo 2&#x27;, &#x27;Comic Neue&#x27;, &#x27;Chalkboard SE&#x27;, &#x27;Trebuchet MS&#x27;, sans-serif" font-size="24" font-weight="800" fill="#2B2D42">A</text><g opacity="0"><text x="27" y="49" text-anchor="middle" font-family="&#x27;Baloo 2&#x27;, &#x27;Comic Neue&#x27;, &#x27;Chalkboard SE&#x27;, &#x27;Trebuchet MS&#x27;, sans-serif" font-size="19" font-weight="800" fill="#2B2D42">G</text><path d="M46 43 H121" stroke="#376CAD" stroke-width="3"></path></g><g opacity="0"><text x="27" y="66" text-anchor="middle" font-family="&#x27;Baloo 2&#x27;, &#x27;Comic Neue&#x27;, &#x27;Chalkboard SE&#x27;, &#x27;Trebuchet MS&#x27;, sans-serif" font-size="19" font-weight="800" fill="#2B2D42">W</text><path d="M46 60 H121" stroke="#376CAD" stroke-width="3"></path></g><g opacity="0"><text x="27" y="83" text-anchor="middle" font-family="&#x27;Baloo 2&#x27;, &#x27;Comic Neue&#x27;, &#x27;Chalkboard SE&#x27;, &#x27;Trebuchet MS&#x27;, sans-serif" font-size="19" font-weight="800" fill="#2B2D42">T</text><path d="M46 77 H121" stroke="#376CAD" stroke-width="3"></path></g></g><g opacity="1" transform="translate(58 262)"><rect width="78" height="50" rx="10" fill="#FFFDF7" stroke="#376CAD" stroke-width="4"></rect><text x="16" y="33" text-anchor="start" font-family="&#x27;Baloo 2&#x27;, &#x27;Comic Neue&#x27;, &#x27;Chalkboard SE&#x27;, &#x27;Trebuchet MS&#x27;, sans-serif" font-size="24" font-weight="800" fill="#2B2D42">B</text><g opacity="0"><text x="27" y="49" text-anchor="middle" font-family="&#x27;Baloo 2&#x27;, &#x27;Comic Neue&#x27;, &#x27;Chalkboard SE&#x27;, &#x27;Trebuchet MS&#x27;, sans-serif" font-size="19" font-weight="800" fill="#2B2D42">G</text><path d="M46 43 H121" stroke="#376CAD" stroke-width="3"></path></g><g opacity="0"><text x="27" y="66" text-anchor="middle" font-family="&#x27;Baloo 2&#x27;, &#x27;Comic Neue&#x27;, &#x27;Chalkboard SE&#x27;, &#x27;Trebuchet MS&#x27;, sans-serif" font-size="19" font-weight="800" fill="#2B2D42">W</text><path d="M46 60 H121" stroke="#376CAD" stroke-width="3"></path></g><g opacity="0"><text x="27" y="83" text-anchor="middle" font-family="&#x27;Baloo 2&#x27;, &#x27;Comic Neue&#x27;, &#x27;Chalkboard SE&#x27;, &#x27;Trebuchet MS&#x27;, sans-serif" font-size="19" font-weight="800" fill="#2B2D42">T</text><path d="M46 77 H121" stroke="#376CAD" stroke-width="3"></path></g></g><g opacity="1" transform="translate(58 324)"><rect width="78" height="50" rx="10" fill="#FFFDF7" stroke="#376CAD" stroke-width="4"></rect><text x="16" y="33" text-anchor="start" font-family="&#x27;Baloo 2&#x27;, &#x27;Comic Neue&#x27;, &#x27;Chalkboard SE&#x27;, &#x27;Trebuchet MS&#x27;, sans-serif" font-size="24" font-weight="800" fill="#2B2D42">C</text><g opacity="0"><text x="27" y="49" text-anchor="middle" font-family="&#x27;Baloo 2&#x27;, &#x27;Comic Neue&#x27;, &#x27;Chalkboard SE&#x27;, &#x27;Trebuchet MS&#x27;, sans-serif" font-size="19" font-weight="800" fill="#2B2D42">G</text><path d="M46 43 H121" stroke="#376CAD" stroke-width="3"></path></g><g opacity="0"><text x="27" y="66" text-anchor="middle" font-family="&#x27;Baloo 2&#x27;, &#x27;Comic Neue&#x27;, &#x27;Chalkboard SE&#x27;, &#x27;Trebuchet MS&#x27;, sans-serif" font-size="19" font-weight="800" fill="#2B2D42">W</text><path d="M46 60 H121" stroke="#376CAD" stroke-width="3"></path></g><g opacity="0"><text x="27" y="83" text-anchor="middle" font-family="&#x27;Baloo 2&#x27;, &#x27;Comic Neue&#x27;, &#x27;Chalkboard SE&#x27;, &#x27;Trebuchet MS&#x27;, sans-serif" font-size="19" font-weight="800" fill="#2B2D42">T</text><path d="M46 77 H121" stroke="#376CAD" stroke-width="3"></path></g></g><g opacity="1" transform="translate(58 386)"><rect width="78" height="50" rx="10" fill="#FFFDF7" stroke="#376CAD" stroke-width="4"></rect><text x="16" y="33" text-anchor="start" font-family="&#x27;Baloo 2&#x27;, &#x27;Comic Neue&#x27;, &#x27;Chalkboard SE&#x27;, &#x27;Trebuchet MS&#x27;, sans-serif" font-size="24" font-weight="800" fill="#2B2D42">D</text><g opacity="0"><text x="27" y="49" text-anchor="middle" font-family="&#x27;Baloo 2&#x27;, &#x27;Comic Neue&#x27;, &#x27;Chalkboard SE&#x27;, &#x27;Trebuchet MS&#x27;, sans-serif" font-size="19" font-weight="800" fill="#2B2D42">G</text><path d="M46 43 H121" stroke="#376CAD" stroke-width="3"></path></g><g opacity="0"><text x="27" y="66" text-anchor="middle" font-family="&#x27;Baloo 2&#x27;, &#x27;Comic Neue&#x27;, &#x27;Chalkboard SE&#x27;, &#x27;Trebuchet MS&#x27;, sans-serif" font-size="19" font-weight="800" fill="#2B2D42">W</text><path d="M46 60 H121" stroke="#376CAD" stroke-width="3"></path></g><g opacity="0"><text x="27" y="83" text-anchor="middle" font-family="&#x27;Baloo 2&#x27;, &#x27;Comic Neue&#x27;, &#x27;Chalkboard SE&#x27;, &#x27;Trebuchet MS&#x27;, sans-serif" font-size="19" font-weight="800" fill="#2B2D42">T</text><path d="M46 77 H121" stroke="#376CAD" stroke-width="3"></path></g></g><g opacity="1" transform="translate(58 448)"><rect width="78" height="50" rx="10" fill="#FFFDF7" stroke="#376CAD" stroke-width="4"></rect><text x="16" y="33" text-anchor="start" font-family="&#x27;Baloo 2&#x27;, &#x27;Comic Neue&#x27;, &#x27;Chalkboard SE&#x27;, &#x27;Trebuchet MS&#x27;, sans-serif" font-size="24" font-weight="800" fill="#2B2D42">E</text><g opacity="0"><text x="27" y="49" text-anchor="middle" font-family="&#x27;Baloo 2&#x27;, &#x27;Comic Neue&#x27;, &#x27;Chalkboard SE&#x27;, &#x27;Trebuchet MS&#x27;, sans-serif" font-size="19" font-weight="800" fill="#2B2D42">G</text><path d="M46 43 H121" stroke="#376CAD" stroke-width="3"></path></g><g opacity="0"><text x="27" y="66" text-anchor="middle" font-family="&#x27;Baloo 2&#x27;, &#x27;Comic Neue&#x27;, &#x27;Chalkboard SE&#x27;, &#x27;Trebuchet MS&#x27;, sans-serif" font-size="19" font-weight="800" fill="#2B2D42">W</text><path d="M46 60 H121" stroke="#376CAD" stroke-width="3"></path></g><g opacity="0"><text x="27" y="83" text-anchor="middle" font-family="&#x27;Baloo 2&#x27;, &#x27;Comic Neue&#x27;, &#x27;Chalkboard SE&#x27;, &#x27;Trebuchet MS&#x27;, sans-serif" font-size="19" font-weight="800" fill="#2B2D42">T</text><path d="M46 77 H121" stroke="#376CAD" stroke-width="3"></path></g></g><text x="143" y="875" text-anchor="middle" font-family="&#x27;Baloo 2&#x27;, &#x27;Comic Neue&#x27;, &#x27;Chalkboard SE&#x27;, &#x27;Trebuchet MS&#x27;, sans-serif" font-size="26" font-weight="700" fill="#376CAD"><tspan opacity="0">Waiting scenarios</tspan></text></g><g opacity="1"><defs><marker id="_R_cb_" viewBox="0 0 3.4 2.6" markerWidth="3.4" markerHeight="2.6" refX="3" refY="1.3" orient="auto" markerUnits="strokeWidth"><path d="M0 .1 L3 1.3 L0 2.5 L.6 1.3 Z" fill="#376CAD"></path></marker></defs><path d="M155 220 C270 220 350 145 513 162" fill="none" stroke="#376CAD" stroke-width="5.5" stroke-linecap="round" stroke-linejoin="round" pathLength="1" stroke-dasharray="1" stroke-dashoffset="0" marker-end="url(#_R_cb_)"></path></g><g opacity="1"><defs><marker id="_R_1gb_" viewBox="0 0 3.4 2.6" markerWidth="3.4" markerHeight="2.6" refX="3" refY="1.3" orient="auto" markerUnits="strokeWidth"><path d="M0 .1 L3 1.3 L0 2.5 L.6 1.3 Z" fill="#376CAD"></path></marker></defs><path d="M727.22 230.72 A280 280 0 0 1 771.60 256.34" fill="none" stroke="#376CAD" stroke-width="5.5" stroke-linecap="round" stroke-linejoin="round" pathLength="1" stroke-dasharray="1" stroke-dashoffset="0" marker-end="url(#_R_1gb_)"></path></g><g opacity="1"><defs><marker id="_R_2gb_" viewBox="0 0 3.4 2.6" markerWidth="3.4" markerHeight="2.6" refX="3" refY="1.3" orient="auto" markerUnits="strokeWidth"><path d="M0 .1 L3 1.3 L0 2.5 L.6 1.3 Z" fill="#376CAD"></path></marker></defs><path d="M886.16 438.79 A280 280 0 0 1 885.31 536.03" fill="none" stroke="#376CAD" stroke-width="5.5" stroke-linecap="round" stroke-linejoin="round" pathLength="1" stroke-dasharray="1" stroke-dashoffset="0" marker-end="url(#_R_2gb_)"></path></g><g opacity="1"><defs><marker id="_R_3gb_" viewBox="0 0 3.4 2.6" markerWidth="3.4" markerHeight="2.6" refX="3" refY="1.3" orient="auto" markerUnits="strokeWidth"><path d="M0 .1 L3 1.3 L0 2.5 L.6 1.3 Z" fill="#376CAD"></path></marker></defs><path d="M771.60 713.66 A280 280 0 0 1 709.20 746.84" fill="none" stroke="#376CAD" stroke-width="5.5" stroke-linecap="round" stroke-linejoin="round" pathLength="1" stroke-dasharray="1" stroke-dashoffset="0" marker-end="url(#_R_3gb_)"></path></g><g opacity="1"><defs><marker id="_R_4gb_" viewBox="0 0 3.4 2.6" markerWidth="3.4" markerHeight="2.6" refX="3" refY="1.3" orient="auto" markerUnits="strokeWidth"><path d="M0 .1 L3 1.3 L0 2.5 L.6 1.3 Z" fill="#376CAD"></path></marker></defs><path d="M448.40 256.34 A280 280 0 0 1 510.80 223.16" fill="none" stroke="#376CAD" stroke-width="5.5" stroke-linecap="round" stroke-linejoin="round" pathLength="1" stroke-dasharray="1" stroke-dashoffset="0" marker-end="url(#_R_4gb_)"></path></g><g opacity="1"><g opacity="1"><defs><marker id="_R_1ob_" viewBox="0 0 3.4 2.6" markerWidth="3.4" markerHeight="2.6" refX="3" refY="1.3" orient="auto" markerUnits="strokeWidth"><path d="M0 .1 L3 1.3 L0 2.5 L.6 1.3 Z" fill="#376CAD"></path></marker></defs><path d="M949 640 C992 654 1047 679 1019 737" fill="none" stroke="#376CAD" stroke-width="5.5" stroke-linecap="round" stroke-linejoin="round" pathLength="1" stroke-dasharray="1" stroke-dashoffset="0" marker-end="url(#_R_1ob_)"></path></g><g transform="translate(995 785) scale(0.75)"><g opacity="0.4" transform="rotate(0)"><g opacity="1"><defs><marker id="_R_mob_" viewBox="0 0 3.4 2.6" markerWidth="3.4" markerHeight="2.6" refX="3" refY="1.3" orient="auto" markerUnits="strokeWidth"><path d="M0 .1 L3 1.3 L0 2.5 L.6 1.3 Z" fill="#CC5752"></path></marker></defs><path d="M-18 -49 A52 52 0 0 1 50 6" fill="none" stroke="#CC5752" stroke-width="6" stroke-linecap="round" stroke-linejoin="round" pathLength="1" stroke-dasharray="1" stroke-dashoffset="0" marker-end="url(#_R_mob_)"></path></g></g><g opacity="0.4" transform="rotate(120)"><g opacity="1"><defs><marker id="_R_16ob_" viewBox="0 0 3.4 2.6" markerWidth="3.4" markerHeight="2.6" refX="3" refY="1.3" orient="auto" markerUnits="strokeWidth"><path d="M0 .1 L3 1.3 L0 2.5 L.6 1.3 Z" fill="#28855D"></path></marker></defs><path d="M-18 -49 A52 52 0 0 1 50 6" fill="none" stroke="#28855D" stroke-width="6" stroke-linecap="round" stroke-linejoin="round" pathLength="1" stroke-dasharray="1" stroke-dashoffset="0" marker-end="url(#_R_16ob_)"></path></g></g><g opacity="1" transform="rotate(240)"><g opacity="1"><defs><marker id="_R_1mob_" viewBox="0 0 3.4 2.6" markerWidth="3.4" markerHeight="2.6" refX="3" refY="1.3" orient="auto" markerUnits="strokeWidth"><path d="M0 .1 L3 1.3 L0 2.5 L.6 1.3 Z" fill="#376CAD"></path></marker></defs><path d="M-18 -49 A52 52 0 0 1 50 6" fill="none" stroke="#376CAD" stroke-width="6" stroke-linecap="round" stroke-linejoin="round" pathLength="1" stroke-dasharray="1" stroke-dashoffset="0" marker-end="url(#_R_1mob_)"></path></g></g><text x="0" y="8" text-anchor="middle" font-family="&#x27;Baloo 2&#x27;, &#x27;Comic Neue&#x27;, &#x27;Chalkboard SE&#x27;, &#x27;Trebuchet MS&#x27;, sans-serif" font-size="20" font-weight="800" fill="#2B2D42">REFACTOR</text><text x="0" y="90" text-anchor="middle" font-family="&#x27;Baloo 2&#x27;, &#x27;Comic Neue&#x27;, &#x27;Chalkboard SE&#x27;, &#x27;Trebuchet MS&#x27;, sans-serif" font-size="28" font-weight="800" fill="#2B2D42">Local TDD</text></g><g opacity="1"><defs><marker id="_R_3ob_" viewBox="0 0 3.4 2.6" markerWidth="3.4" markerHeight="2.6" refX="3" refY="1.3" orient="auto" markerUnits="strokeWidth"><path d="M0 .1 L3 1.3 L0 2.5 L.6 1.3 Z" fill="#28855D"></path></marker></defs><path d="M949 766 C960 745 972 707 949 680" fill="none" stroke="#28855D" stroke-width="5.5" stroke-linecap="round" stroke-linejoin="round" pathLength="1" stroke-dasharray="1" stroke-dashoffset="0" marker-end="url(#_R_3ob_)"></path></g></g></g><g opacity="1"><defs><marker id="_R_j_" viewBox="0 0 3.4 2.6" markerWidth="3.4" markerHeight="2.6" refX="3" refY="1.3" orient="auto" markerUnits="strokeWidth"><path d="M0 .1 L3 1.3 L0 2.5 L.6 1.3 Z" fill="#376CAD"></path></marker></defs><path d="M492.78 739.28 A280 280 0 0 1 448.40 713.66" fill="none" stroke="#376CAD" stroke-width="5.5" stroke-linecap="round" stroke-linejoin="round" pathLength="1" stroke-dasharray="1" stroke-dashoffset="0" marker-end="url(#_R_j_)"></path></g><g opacity="1"><defs><marker id="_R_r_" viewBox="0 0 3.4 2.6" markerWidth="3.4" markerHeight="2.6" refX="3" refY="1.3" orient="auto" markerUnits="strokeWidth"><path d="M0 .1 L3 1.3 L0 2.5 L.6 1.3 Z" fill="#28855D"></path></marker></defs><path d="M333.84 531.21 A280 280 0 0 1 334.69 433.97" fill="none" stroke="#28855D" stroke-width="5.5" stroke-linecap="round" stroke-linejoin="round" pathLength="1" stroke-dasharray="1" stroke-dashoffset="0" marker-end="url(#_R_r_)"></path></g><g opacity="1" transform="translate(529 134.8) scale(0.9)"><g transform="translate(0 0)" opacity="1"><path d="M0.0,5.0 Q0.0,0.0 5.0,0.0 L175.0,0.0 Q180.0,0.0 180.0,5.0 L180.0,41.0 Q180.0,46.0 184.0,48.9 L220.0,75.1 Q224.0,78.0 220.0,80.9 L184.0,107.1 Q180.0,110.0 180.0,115.0 L180.0,151.0 Q180.0,156.0 175.0,156.0 L5.0,156.0 Q0.0,156.0 0.0,151.0 Z" transform="translate(5 5)" fill="#F0DDB8" opacity="0.55"></path><path d="M0.0,5.0 Q0.0,0.0 5.0,0.0 L175.0,0.0 Q180.0,0.0 180.0,5.0 L180.0,41.0 Q180.0,46.0 184.0,48.9 L220.0,75.1 Q224.0,78.0 220.0,80.9 L184.0,107.1 Q180.0,110.0 180.0,115.0 L180.0,151.0 Q180.0,156.0 175.0,156.0 L5.0,156.0 Q0.0,156.0 0.0,151.0 Z" fill="#FFFDF7" stroke="#376CAD" stroke-width="4.5" stroke-linejoin="round"></path><text x="90" y="28" text-anchor="middle" font-family="&#x27;Baloo 2&#x27;, &#x27;Comic Neue&#x27;, &#x27;Chalkboard SE&#x27;, &#x27;Trebuchet MS&#x27;, sans-serif" font-size="26" font-weight="800" fill="#2B2D42">Scenario A</text><g><path d="M12 66 H168" stroke="#F0DDB8" stroke-width="1.5"></path><text x="12" y="58" text-anchor="start" font-family="&#x27;Baloo 2&#x27;, &#x27;Comic Neue&#x27;, &#x27;Chalkboard SE&#x27;, &#x27;Trebuchet MS&#x27;, sans-serif" font-size="28" font-weight="700" fill="#2B2D42">Given</text><g><circle cx="155" cy="49" r="16" fill="#28855D" stroke="#28855D" stroke-width="3"></circle><g stroke="#FFFFFF" stroke-width="4.5" stroke-linecap="round" stroke-linejoin="round" fill="none"><path d="M147 49 l5.5 6 l12.5 -13.5"></path></g></g></g><g><path d="M12 95 H168" stroke="#F0DDB8" stroke-width="1.5"></path><text x="12" y="87" text-anchor="start" font-family="&#x27;Baloo 2&#x27;, &#x27;Comic Neue&#x27;, &#x27;Chalkboard SE&#x27;, &#x27;Trebuchet MS&#x27;, sans-serif" font-size="28" font-weight="700" fill="#2B2D42">Select</text><g><circle cx="155" cy="78" r="16" fill="#FFF6E5" stroke="#AC7E45" stroke-width="3" stroke-dasharray="5 5"></circle><text x="155" y="87" text-anchor="middle" font-family="&#x27;Baloo 2&#x27;, &#x27;Comic Neue&#x27;, &#x27;Chalkboard SE&#x27;, &#x27;Trebuchet MS&#x27;, sans-serif" font-size="27" font-weight="800" fill="#AC7E45">…</text></g></g><g><path d="M12 124 H168" stroke="#F0DDB8" stroke-width="1.5"></path><text x="12" y="116" text-anchor="start" font-family="&#x27;Baloo 2&#x27;, &#x27;Comic Neue&#x27;, &#x27;Chalkboard SE&#x27;, &#x27;Trebuchet MS&#x27;, sans-serif" font-size="28" font-weight="700" fill="#2B2D42">Update</text><g><circle cx="155" cy="107" r="16" fill="#FFF6E5" stroke="#AC7E45" stroke-width="3" stroke-dasharray="5 5"></circle><text x="155" y="116" text-anchor="middle" font-family="&#x27;Baloo 2&#x27;, &#x27;Comic Neue&#x27;, &#x27;Chalkboard SE&#x27;, &#x27;Trebuchet MS&#x27;, sans-serif" font-size="27" font-weight="800" fill="#AC7E45">…</text></g></g><g><path d="M12 153 H168" stroke="#F0DDB8" stroke-width="1.5"></path><text x="12" y="145" text-anchor="start" font-family="&#x27;Baloo 2&#x27;, &#x27;Comic Neue&#x27;, &#x27;Chalkboard SE&#x27;, &#x27;Trebuchet MS&#x27;, sans-serif" font-size="28" font-weight="700" fill="#2B2D42">Then</text><g><circle cx="155" cy="136" r="16" fill="#FFF6E5" stroke="#AC7E45" stroke-width="3" stroke-dasharray="5 5"></circle><text x="155" y="145" text-anchor="middle" font-family="&#x27;Baloo 2&#x27;, &#x27;Comic Neue&#x27;, &#x27;Chalkboard SE&#x27;, &#x27;Trebuchet MS&#x27;, sans-serif" font-size="27" font-weight="800" fill="#AC7E45">…</text></g></g><g><circle cx="-15" cy="-17" r="17" fill="#D4E4F3" stroke="#2B2D42" stroke-width="3"></circle><text x="-15" y="-9" text-anchor="middle" font-family="&#x27;Baloo 2&#x27;, &#x27;Comic Neue&#x27;, &#x27;Chalkboard SE&#x27;, &#x27;Trebuchet MS&#x27;, sans-serif" font-size="24" font-weight="800" fill="#2B2D42">1</text></g></g></g><g opacity="1" transform="translate(771.4871130596429 274.8) scale(0.9)"><g transform="translate(0 0)" opacity="1"><path d="M0.0,5.0 Q0.0,0.0 5.0,0.0 L175.0,0.0 Q180.0,0.0 180.0,5.0 L180.0,151.0 Q180.0,156.0 175.0,156.0 L127.0,156.0 Q122.0,156.0 118.9,159.9 L93.1,192.1 Q90.0,196.0 86.9,192.1 L61.1,159.9 Q58.0,156.0 53.0,156.0 L5.0,156.0 Q0.0,156.0 0.0,151.0 Z" transform="translate(5 5)" fill="#F0DDB8" opacity="0.55"></path><path d="M0.0,5.0 Q0.0,0.0 5.0,0.0 L175.0,0.0 Q180.0,0.0 180.0,5.0 L180.0,151.0 Q180.0,156.0 175.0,156.0 L127.0,156.0 Q122.0,156.0 118.9,159.9 L93.1,192.1 Q90.0,196.0 86.9,192.1 L61.1,159.9 Q58.0,156.0 53.0,156.0 L5.0,156.0 Q0.0,156.0 0.0,151.0 Z" fill="#FFFDF7" stroke="#376CAD" stroke-width="4.5" stroke-linejoin="round"></path><text x="90" y="28" text-anchor="middle" font-family="&#x27;Baloo 2&#x27;, &#x27;Comic Neue&#x27;, &#x27;Chalkboard SE&#x27;, &#x27;Trebuchet MS&#x27;, sans-serif" font-size="26" font-weight="800" fill="#2B2D42">Scenario A</text><g><path d="M12 66 H168" stroke="#F0DDB8" stroke-width="1.5"></path><text x="12" y="58" text-anchor="start" font-family="&#x27;Baloo 2&#x27;, &#x27;Comic Neue&#x27;, &#x27;Chalkboard SE&#x27;, &#x27;Trebuchet MS&#x27;, sans-serif" font-size="28" font-weight="700" fill="#2B2D42">Given</text><g><circle cx="155" cy="49" r="16" fill="#28855D" stroke="#28855D" stroke-width="3"></circle><g stroke="#FFFFFF" stroke-width="4.5" stroke-linecap="round" stroke-linejoin="round" fill="none"><path d="M147 49 l5.5 6 l12.5 -13.5"></path></g></g></g><g><path d="M12 95 H168" stroke="#F0DDB8" stroke-width="1.5"></path><text x="12" y="87" text-anchor="start" font-family="&#x27;Baloo 2&#x27;, &#x27;Comic Neue&#x27;, &#x27;Chalkboard SE&#x27;, &#x27;Trebuchet MS&#x27;, sans-serif" font-size="28" font-weight="700" fill="#2B2D42">Select</text><g><circle cx="155" cy="78" r="16" fill="#CC5752" stroke="#CC5752" stroke-width="3"></circle><g stroke="#FFFFFF" stroke-width="4.5" stroke-linecap="round" stroke-linejoin="round" fill="none"><path d="M148.5 71.5 L161.5 84.5 M161.5 71.5 L148.5 84.5"></path></g></g></g><g><path d="M12 124 H168" stroke="#F0DDB8" stroke-width="1.5"></path><text x="12" y="116" text-anchor="start" font-family="&#x27;Baloo 2&#x27;, &#x27;Comic Neue&#x27;, &#x27;Chalkboard SE&#x27;, &#x27;Trebuchet MS&#x27;, sans-serif" font-size="28" font-weight="700" fill="#2B2D42">Update</text><g><circle cx="155" cy="107" r="16" fill="#FFF6E5" stroke="#AC7E45" stroke-width="3" stroke-dasharray="5 5"></circle><text x="155" y="116" text-anchor="middle" font-family="&#x27;Baloo 2&#x27;, &#x27;Comic Neue&#x27;, &#x27;Chalkboard SE&#x27;, &#x27;Trebuchet MS&#x27;, sans-serif" font-size="27" font-weight="800" fill="#AC7E45">…</text></g></g><g><path d="M12 153 H168" stroke="#F0DDB8" stroke-width="1.5"></path><text x="12" y="145" text-anchor="start" font-family="&#x27;Baloo 2&#x27;, &#x27;Comic Neue&#x27;, &#x27;Chalkboard SE&#x27;, &#x27;Trebuchet MS&#x27;, sans-serif" font-size="28" font-weight="700" fill="#2B2D42">Then</text><g><circle cx="155" cy="136" r="16" fill="#FFF6E5" stroke="#AC7E45" stroke-width="3" stroke-dasharray="5 5"></circle><text x="155" y="145" text-anchor="middle" font-family="&#x27;Baloo 2&#x27;, &#x27;Comic Neue&#x27;, &#x27;Chalkboard SE&#x27;, &#x27;Trebuchet MS&#x27;, sans-serif" font-size="27" font-weight="800" fill="#AC7E45">…</text></g></g><g transform="translate(210 0)"><circle cx="-15" cy="-17" r="17" fill="#D4E4F3" stroke="#2B2D42" stroke-width="3"></circle><text x="-15" y="-9" text-anchor="middle" font-family="&#x27;Baloo 2&#x27;, &#x27;Comic Neue&#x27;, &#x27;Chalkboard SE&#x27;, &#x27;Trebuchet MS&#x27;, sans-serif" font-size="24" font-weight="800" fill="#2B2D42">2</text></g></g></g><g opacity="1" transform="translate(771.4871130596429 554.8) scale(0.9)"><g transform="translate(0 0)" opacity="1"><path d="M0.0,5.0 Q0.0,0.0 5.0,0.0 L175.0,0.0 Q180.0,0.0 180.0,5.0 L180.0,151.0 Q180.0,156.0 175.0,156.0 L5.0,156.0 Q0.0,156.0 0.0,151.0 L0.0,115.0 Q0.0,110.0 -4.0,107.1 L-40.0,80.9 Q-44.0,78.0 -40.0,75.1 L-4.0,48.9 Q0.0,46.0 0.0,41.0 Z" transform="translate(5 5)" fill="#F0DDB8" opacity="0.55"></path><path d="M0.0,5.0 Q0.0,0.0 5.0,0.0 L175.0,0.0 Q180.0,0.0 180.0,5.0 L180.0,151.0 Q180.0,156.0 175.0,156.0 L5.0,156.0 Q0.0,156.0 0.0,151.0 L0.0,115.0 Q0.0,110.0 -4.0,107.1 L-40.0,80.9 Q-44.0,78.0 -40.0,75.1 L-4.0,48.9 Q0.0,46.0 0.0,41.0 Z" fill="#FFFDF7" stroke="#376CAD" stroke-width="4.5" stroke-linejoin="round"></path><text x="90" y="28" text-anchor="middle" font-family="&#x27;Baloo 2&#x27;, &#x27;Comic Neue&#x27;, &#x27;Chalkboard SE&#x27;, &#x27;Trebuchet MS&#x27;, sans-serif" font-size="26" font-weight="800" fill="#2B2D42">Scenario A</text><g><path d="M12 66 H168" stroke="#F0DDB8" stroke-width="1.5"></path><text x="12" y="58" text-anchor="start" font-family="&#x27;Baloo 2&#x27;, &#x27;Comic Neue&#x27;, &#x27;Chalkboard SE&#x27;, &#x27;Trebuchet MS&#x27;, sans-serif" font-size="28" font-weight="700" fill="#2B2D42">Given</text><g><circle cx="155" cy="49" r="16" fill="#28855D" stroke="#28855D" stroke-width="3"></circle><g stroke="#FFFFFF" stroke-width="4.5" stroke-linecap="round" stroke-linejoin="round" fill="none"><path d="M147 49 l5.5 6 l12.5 -13.5"></path></g></g></g><g><path d="M12 95 H168" stroke="#F0DDB8" stroke-width="1.5"></path><text x="12" y="87" text-anchor="start" font-family="&#x27;Baloo 2&#x27;, &#x27;Comic Neue&#x27;, &#x27;Chalkboard SE&#x27;, &#x27;Trebuchet MS&#x27;, sans-serif" font-size="28" font-weight="700" fill="#2B2D42">Select</text><g><circle cx="155" cy="78" r="16" fill="#28855D" stroke="#28855D" stroke-width="3"></circle><g stroke="#FFFFFF" stroke-width="4.5" stroke-linecap="round" stroke-linejoin="round" fill="none"><path d="M147 78 l5.5 6 l12.5 -13.5"></path></g></g></g><g><path d="M12 124 H168" stroke="#F0DDB8" stroke-width="1.5"></path><text x="12" y="116" text-anchor="start" font-family="&#x27;Baloo 2&#x27;, &#x27;Comic Neue&#x27;, &#x27;Chalkboard SE&#x27;, &#x27;Trebuchet MS&#x27;, sans-serif" font-size="28" font-weight="700" fill="#2B2D42">Update</text><g><circle cx="155" cy="107" r="16" fill="#28855D" stroke="#28855D" stroke-width="3"></circle><g stroke="#FFFFFF" stroke-width="4.5" stroke-linecap="round" stroke-linejoin="round" fill="none"><path d="M147 107 l5.5 6 l12.5 -13.5"></path></g></g></g><g><path d="M12 153 H168" stroke="#F0DDB8" stroke-width="1.5"></path><text x="12" y="145" text-anchor="start" font-family="&#x27;Baloo 2&#x27;, &#x27;Comic Neue&#x27;, &#x27;Chalkboard SE&#x27;, &#x27;Trebuchet MS&#x27;, sans-serif" font-size="28" font-weight="700" fill="#2B2D42">Then</text><g><circle cx="155" cy="136" r="16" fill="#FFF6E5" stroke="#AC7E45" stroke-width="3" stroke-dasharray="5 5"></circle><text x="155" y="145" text-anchor="middle" font-family="&#x27;Baloo 2&#x27;, &#x27;Comic Neue&#x27;, &#x27;Chalkboard SE&#x27;, &#x27;Trebuchet MS&#x27;, sans-serif" font-size="27" font-weight="800" fill="#AC7E45">…</text></g></g><g><circle cx="-15" cy="-17" r="17" fill="#D4E4F3" stroke="#2B2D42" stroke-width="3"></circle><text x="-15" y="-9" text-anchor="middle" font-family="&#x27;Baloo 2&#x27;, &#x27;Comic Neue&#x27;, &#x27;Chalkboard SE&#x27;, &#x27;Trebuchet MS&#x27;, sans-serif" font-size="24" font-weight="800" fill="#2B2D42">3</text></g></g></g><g opacity="1" transform="translate(529 694.8) scale(0.9)"><g transform="translate(0 0)" opacity="1"><path d="M0.0,5.0 Q0.0,0.0 5.0,0.0 L175.0,0.0 Q180.0,0.0 180.0,5.0 L180.0,151.0 Q180.0,156.0 175.0,156.0 L5.0,156.0 Q0.0,156.0 0.0,151.0 L0.0,115.0 Q0.0,110.0 -4.0,107.1 L-40.0,80.9 Q-44.0,78.0 -40.0,75.1 L-4.0,48.9 Q0.0,46.0 0.0,41.0 Z" transform="translate(5 5)" fill="#F0DDB8" opacity="0.55"></path><path d="M0.0,5.0 Q0.0,0.0 5.0,0.0 L175.0,0.0 Q180.0,0.0 180.0,5.0 L180.0,151.0 Q180.0,156.0 175.0,156.0 L5.0,156.0 Q0.0,156.0 0.0,151.0 L0.0,115.0 Q0.0,110.0 -4.0,107.1 L-40.0,80.9 Q-44.0,78.0 -40.0,75.1 L-4.0,48.9 Q0.0,46.0 0.0,41.0 Z" fill="#FFFDF7" stroke="#376CAD" stroke-width="4.5" stroke-linejoin="round"></path><text x="90" y="28" text-anchor="middle" font-family="&#x27;Baloo 2&#x27;, &#x27;Comic Neue&#x27;, &#x27;Chalkboard SE&#x27;, &#x27;Trebuchet MS&#x27;, sans-serif" font-size="26" font-weight="800" fill="#2B2D42">Scenario A</text><g><path d="M12 66 H168" stroke="#F0DDB8" stroke-width="1.5"></path><text x="12" y="58" text-anchor="start" font-family="&#x27;Baloo 2&#x27;, &#x27;Comic Neue&#x27;, &#x27;Chalkboard SE&#x27;, &#x27;Trebuchet MS&#x27;, sans-serif" font-size="28" font-weight="700" fill="#2B2D42">Given</text><g><circle cx="155" cy="49" r="16" fill="#28855D" stroke="#28855D" stroke-width="3"></circle><g stroke="#FFFFFF" stroke-width="4.5" stroke-linecap="round" stroke-linejoin="round" fill="none"><path d="M147 49 l5.5 6 l12.5 -13.5"></path></g></g></g><g><path d="M12 95 H168" stroke="#F0DDB8" stroke-width="1.5"></path><text x="12" y="87" text-anchor="start" font-family="&#x27;Baloo 2&#x27;, &#x27;Comic Neue&#x27;, &#x27;Chalkboard SE&#x27;, &#x27;Trebuchet MS&#x27;, sans-serif" font-size="28" font-weight="700" fill="#2B2D42">Select</text><g><circle cx="155" cy="78" r="16" fill="#28855D" stroke="#28855D" stroke-width="3"></circle><g stroke="#FFFFFF" stroke-width="4.5" stroke-linecap="round" stroke-linejoin="round" fill="none"><path d="M147 78 l5.5 6 l12.5 -13.5"></path></g></g></g><g><path d="M12 124 H168" stroke="#F0DDB8" stroke-width="1.5"></path><text x="12" y="116" text-anchor="start" font-family="&#x27;Baloo 2&#x27;, &#x27;Comic Neue&#x27;, &#x27;Chalkboard SE&#x27;, &#x27;Trebuchet MS&#x27;, sans-serif" font-size="28" font-weight="700" fill="#2B2D42">Update</text><g><circle cx="155" cy="107" r="16" fill="#28855D" stroke="#28855D" stroke-width="3"></circle><g stroke="#FFFFFF" stroke-width="4.5" stroke-linecap="round" stroke-linejoin="round" fill="none"><path d="M147 107 l5.5 6 l12.5 -13.5"></path></g></g></g><g><path d="M12 153 H168" stroke="#F0DDB8" stroke-width="1.5"></path><text x="12" y="145" text-anchor="start" font-family="&#x27;Baloo 2&#x27;, &#x27;Comic Neue&#x27;, &#x27;Chalkboard SE&#x27;, &#x27;Trebuchet MS&#x27;, sans-serif" font-size="28" font-weight="700" fill="#2B2D42">Then</text><g><circle cx="155" cy="136" r="16" fill="#CC5752" stroke="#CC5752" stroke-width="3"></circle><g stroke="#FFFFFF" stroke-width="4.5" stroke-linecap="round" stroke-linejoin="round" fill="none"><path d="M148.5 129.5 L161.5 142.5 M161.5 129.5 L148.5 142.5"></path></g></g></g><g><circle cx="-15" cy="-17" r="17" fill="#D4E4F3" stroke="#2B2D42" stroke-width="3"></circle><text x="-15" y="-9" text-anchor="middle" font-family="&#x27;Baloo 2&#x27;, &#x27;Comic Neue&#x27;, &#x27;Chalkboard SE&#x27;, &#x27;Trebuchet MS&#x27;, sans-serif" font-size="24" font-weight="800" fill="#2B2D42">4</text></g></g></g><g opacity="1" transform="translate(286.51288694035713 554.8) scale(0.9)"><g transform="translate(0 0)" opacity="1"><path d="M0.0,5.0 Q0.0,0.0 5.0,0.0 L53.0,0.0 Q58.0,0.0 61.1,-3.9 L86.9,-36.1 Q90.0,-40.0 93.1,-36.1 L118.9,-3.9 Q122.0,0.0 127.0,0.0 L175.0,0.0 Q180.0,0.0 180.0,5.0 L180.0,151.0 Q180.0,156.0 175.0,156.0 L5.0,156.0 Q0.0,156.0 0.0,151.0 Z" transform="translate(5 5)" fill="#F0DDB8" opacity="0.55"></path><path d="M0.0,5.0 Q0.0,0.0 5.0,0.0 L53.0,0.0 Q58.0,0.0 61.1,-3.9 L86.9,-36.1 Q90.0,-40.0 93.1,-36.1 L118.9,-3.9 Q122.0,0.0 127.0,0.0 L175.0,0.0 Q180.0,0.0 180.0,5.0 L180.0,151.0 Q180.0,156.0 175.0,156.0 L5.0,156.0 Q0.0,156.0 0.0,151.0 Z" fill="#FFFDF7" stroke="#376CAD" stroke-width="4.5" stroke-linejoin="round"></path><text x="90" y="28" text-anchor="middle" font-family="&#x27;Baloo 2&#x27;, &#x27;Comic Neue&#x27;, &#x27;Chalkboard SE&#x27;, &#x27;Trebuchet MS&#x27;, sans-serif" font-size="26" font-weight="800" fill="#2B2D42">Scenario A</text><g><path d="M12 66 H168" stroke="#F0DDB8" stroke-width="1.5"></path><text x="12" y="58" text-anchor="start" font-family="&#x27;Baloo 2&#x27;, &#x27;Comic Neue&#x27;, &#x27;Chalkboard SE&#x27;, &#x27;Trebuchet MS&#x27;, sans-serif" font-size="28" font-weight="700" fill="#2B2D42">Given</text><g><circle cx="155" cy="49" r="16" fill="#28855D" stroke="#28855D" stroke-width="3"></circle><g stroke="#FFFFFF" stroke-width="4.5" stroke-linecap="round" stroke-linejoin="round" fill="none"><path d="M147 49 l5.5 6 l12.5 -13.5"></path></g></g></g><g><path d="M12 95 H168" stroke="#F0DDB8" stroke-width="1.5"></path><text x="12" y="87" text-anchor="start" font-family="&#x27;Baloo 2&#x27;, &#x27;Comic Neue&#x27;, &#x27;Chalkboard SE&#x27;, &#x27;Trebuchet MS&#x27;, sans-serif" font-size="28" font-weight="700" fill="#2B2D42">Select</text><g><circle cx="155" cy="78" r="16" fill="#28855D" stroke="#28855D" stroke-width="3"></circle><g stroke="#FFFFFF" stroke-width="4.5" stroke-linecap="round" stroke-linejoin="round" fill="none"><path d="M147 78 l5.5 6 l12.5 -13.5"></path></g></g></g><g><path d="M12 124 H168" stroke="#F0DDB8" stroke-width="1.5"></path><text x="12" y="116" text-anchor="start" font-family="&#x27;Baloo 2&#x27;, &#x27;Comic Neue&#x27;, &#x27;Chalkboard SE&#x27;, &#x27;Trebuchet MS&#x27;, sans-serif" font-size="28" font-weight="700" fill="#2B2D42">Update</text><g><circle cx="155" cy="107" r="16" fill="#28855D" stroke="#28855D" stroke-width="3"></circle><g stroke="#FFFFFF" stroke-width="4.5" stroke-linecap="round" stroke-linejoin="round" fill="none"><path d="M147 107 l5.5 6 l12.5 -13.5"></path></g></g></g><g><path d="M12 153 H168" stroke="#F0DDB8" stroke-width="1.5"></path><text x="12" y="145" text-anchor="start" font-family="&#x27;Baloo 2&#x27;, &#x27;Comic Neue&#x27;, &#x27;Chalkboard SE&#x27;, &#x27;Trebuchet MS&#x27;, sans-serif" font-size="28" font-weight="700" fill="#2B2D42">Then</text><g><circle cx="155" cy="136" r="16" fill="#FFF6E5" stroke="#AC7E45" stroke-width="3" stroke-dasharray="5 5"></circle><text x="155" y="145" text-anchor="middle" font-family="&#x27;Baloo 2&#x27;, &#x27;Comic Neue&#x27;, &#x27;Chalkboard SE&#x27;, &#x27;Trebuchet MS&#x27;, sans-serif" font-size="27" font-weight="800" fill="#AC7E45">…</text></g></g><g><circle cx="-15" cy="-17" r="17" fill="#D4E4F3" stroke="#2B2D42" stroke-width="3"></circle><text x="-15" y="-9" text-anchor="middle" font-family="&#x27;Baloo 2&#x27;, &#x27;Comic Neue&#x27;, &#x27;Chalkboard SE&#x27;, &#x27;Trebuchet MS&#x27;, sans-serif" font-size="24" font-weight="800" fill="#2B2D42">5</text></g></g></g><g opacity="1" transform="translate(286.5128869403572 274.8) scale(0.9)"><g transform="translate(0 0)" opacity="1"><path d="M0.0,5.0 Q0.0,0.0 5.0,0.0 L53.0,0.0 Q58.0,0.0 61.1,-3.9 L86.9,-36.1 Q90.0,-40.0 93.1,-36.1 L118.9,-3.9 Q122.0,0.0 127.0,0.0 L175.0,0.0 Q180.0,0.0 180.0,5.0 L180.0,151.0 Q180.0,156.0 175.0,156.0 L5.0,156.0 Q0.0,156.0 0.0,151.0 Z" transform="translate(5 5)" fill="#F0DDB8" opacity="0.55"></path><path d="M0.0,5.0 Q0.0,0.0 5.0,0.0 L53.0,0.0 Q58.0,0.0 61.1,-3.9 L86.9,-36.1 Q90.0,-40.0 93.1,-36.1 L118.9,-3.9 Q122.0,0.0 127.0,0.0 L175.0,0.0 Q180.0,0.0 180.0,5.0 L180.0,151.0 Q180.0,156.0 175.0,156.0 L5.0,156.0 Q0.0,156.0 0.0,151.0 Z" fill="#FFFDF7" stroke="#376CAD" stroke-width="4.5" stroke-linejoin="round"></path><text x="90" y="28" text-anchor="middle" font-family="&#x27;Baloo 2&#x27;, &#x27;Comic Neue&#x27;, &#x27;Chalkboard SE&#x27;, &#x27;Trebuchet MS&#x27;, sans-serif" font-size="26" font-weight="800" fill="#2B2D42">Scenario A</text><g><path d="M12 66 H168" stroke="#F0DDB8" stroke-width="1.5"></path><text x="12" y="58" text-anchor="start" font-family="&#x27;Baloo 2&#x27;, &#x27;Comic Neue&#x27;, &#x27;Chalkboard SE&#x27;, &#x27;Trebuchet MS&#x27;, sans-serif" font-size="28" font-weight="700" fill="#2B2D42">Given</text><g><circle cx="155" cy="49" r="16" fill="#28855D" stroke="#28855D" stroke-width="3"></circle><g stroke="#FFFFFF" stroke-width="4.5" stroke-linecap="round" stroke-linejoin="round" fill="none"><path d="M147 49 l5.5 6 l12.5 -13.5"></path></g></g></g><g><path d="M12 95 H168" stroke="#F0DDB8" stroke-width="1.5"></path><text x="12" y="87" text-anchor="start" font-family="&#x27;Baloo 2&#x27;, &#x27;Comic Neue&#x27;, &#x27;Chalkboard SE&#x27;, &#x27;Trebuchet MS&#x27;, sans-serif" font-size="28" font-weight="700" fill="#2B2D42">Select</text><g><circle cx="155" cy="78" r="16" fill="#28855D" stroke="#28855D" stroke-width="3"></circle><g stroke="#FFFFFF" stroke-width="4.5" stroke-linecap="round" stroke-linejoin="round" fill="none"><path d="M147 78 l5.5 6 l12.5 -13.5"></path></g></g></g><g><path d="M12 124 H168" stroke="#F0DDB8" stroke-width="1.5"></path><text x="12" y="116" text-anchor="start" font-family="&#x27;Baloo 2&#x27;, &#x27;Comic Neue&#x27;, &#x27;Chalkboard SE&#x27;, &#x27;Trebuchet MS&#x27;, sans-serif" font-size="28" font-weight="700" fill="#2B2D42">Update</text><g><circle cx="155" cy="107" r="16" fill="#28855D" stroke="#28855D" stroke-width="3"></circle><g stroke="#FFFFFF" stroke-width="4.5" stroke-linecap="round" stroke-linejoin="round" fill="none"><path d="M147 107 l5.5 6 l12.5 -13.5"></path></g></g></g><g><path d="M12 153 H168" stroke="#F0DDB8" stroke-width="1.5"></path><text x="12" y="145" text-anchor="start" font-family="&#x27;Baloo 2&#x27;, &#x27;Comic Neue&#x27;, &#x27;Chalkboard SE&#x27;, &#x27;Trebuchet MS&#x27;, sans-serif" font-size="28" font-weight="700" fill="#2B2D42">Then</text><g><circle cx="155" cy="136" r="16" fill="#28855D" stroke="#28855D" stroke-width="3"></circle><g stroke="#FFFFFF" stroke-width="4.5" stroke-linecap="round" stroke-linejoin="round" fill="none"><path d="M147 136 l5.5 6 l12.5 -13.5"></path></g></g></g><g><circle cx="-15" cy="-17" r="17" fill="#D4E4F3" stroke="#2B2D42" stroke-width="3"></circle><text x="-15" y="-9" text-anchor="middle" font-family="&#x27;Baloo 2&#x27;, &#x27;Comic Neue&#x27;, &#x27;Chalkboard SE&#x27;, &#x27;Trebuchet MS&#x27;, sans-serif" font-size="24" font-weight="800" fill="#2B2D42">6</text></g></g></g><g><g opacity="1"><defs><marker id="_R_5b_" viewBox="0 0 3.4 2.6" markerWidth="3.4" markerHeight="2.6" refX="3" refY="1.3" orient="auto" markerUnits="strokeWidth"><path d="M0 .1 L3 1.3 L0 2.5 L.6 1.3 Z" fill="#376CAD"></path></marker></defs><path d="M610.00 676.52 L610 545.64" fill="none" stroke="#376CAD" stroke-width="5.5" stroke-linecap="round" stroke-linejoin="round" pathLength="1" stroke-dasharray="1" stroke-dashoffset="0" marker-end="url(#_R_5b_)"></path></g><g opacity="1"><g transform="translate(610 485) scale(0.82)"><g opacity="0.4" transform="rotate(0)"><g opacity="1"><defs><marker id="_R_59b_" viewBox="0 0 3.4 2.6" markerWidth="3.4" markerHeight="2.6" refX="3" refY="1.3" orient="auto" markerUnits="strokeWidth"><path d="M0 .1 L3 1.3 L0 2.5 L.6 1.3 Z" fill="#CC5752"></path></marker></defs><path d="M-18 -49 A52 52 0 0 1 50 6" fill="none" stroke="#CC5752" stroke-width="6" stroke-linecap="round" stroke-linejoin="round" pathLength="1" stroke-dasharray="1" stroke-dashoffset="0" marker-end="url(#_R_59b_)"></path></g></g><g opacity="0.4" transform="rotate(120)"><g opacity="1"><defs><marker id="_R_99b_" viewBox="0 0 3.4 2.6" markerWidth="3.4" markerHeight="2.6" refX="3" refY="1.3" orient="auto" markerUnits="strokeWidth"><path d="M0 .1 L3 1.3 L0 2.5 L.6 1.3 Z" fill="#28855D"></path></marker></defs><path d="M-18 -49 A52 52 0 0 1 50 6" fill="none" stroke="#28855D" stroke-width="6" stroke-linecap="round" stroke-linejoin="round" pathLength="1" stroke-dasharray="1" stroke-dashoffset="0" marker-end="url(#_R_99b_)"></path></g></g><g opacity="1" transform="rotate(240)"><g opacity="1"><defs><marker id="_R_d9b_" viewBox="0 0 3.4 2.6" markerWidth="3.4" markerHeight="2.6" refX="3" refY="1.3" orient="auto" markerUnits="strokeWidth"><path d="M0 .1 L3 1.3 L0 2.5 L.6 1.3 Z" fill="#376CAD"></path></marker></defs><path d="M-18 -49 A52 52 0 0 1 50 6" fill="none" stroke="#376CAD" stroke-width="6" stroke-linecap="round" stroke-linejoin="round" pathLength="1" stroke-dasharray="1" stroke-dashoffset="0" marker-end="url(#_R_d9b_)"></path></g></g><text x="0" y="8" text-anchor="middle" font-family="&#x27;Baloo 2&#x27;, &#x27;Comic Neue&#x27;, &#x27;Chalkboard SE&#x27;, &#x27;Trebuchet MS&#x27;, sans-serif" font-size="20" font-weight="800" fill="#2B2D42">REFACTOR</text></g></g><g opacity="1"><defs><marker id="_R_db_" viewBox="0 0 3.4 2.6" markerWidth="3.4" markerHeight="2.6" refX="3" refY="1.3" orient="auto" markerUnits="strokeWidth"><path d="M0 .1 L3 1.3 L0 2.5 L.6 1.3 Z" fill="#28855D"></path></marker></defs><path d="M557.48 454.68 L466.93 402.40" fill="none" stroke="#28855D" stroke-width="5.5" stroke-linecap="round" stroke-linejoin="round" pathLength="1" stroke-dasharray="1" stroke-dashoffset="0" marker-end="url(#_R_db_)"></path></g></g></g><g><text x="264" y="950" text-anchor="middle" font-family="&#x27;Baloo 2&#x27;, &#x27;Comic Neue&#x27;, &#x27;Chalkboard SE&#x27;, &#x27;Trebuchet MS&#x27;, sans-serif" font-size="28" font-weight="800" fill="#28855D">✓ Observed pass</text><text x="551" y="950" text-anchor="middle" font-family="&#x27;Baloo 2&#x27;, &#x27;Comic Neue&#x27;, &#x27;Chalkboard SE&#x27;, &#x27;Trebuchet MS&#x27;, sans-serif" font-size="28" font-weight="800" fill="#AC7E45">… Unfinished</text><text x="849" y="950" text-anchor="middle" font-family="&#x27;Baloo 2&#x27;, &#x27;Comic Neue&#x27;, &#x27;Chalkboard SE&#x27;, &#x27;Trebuchet MS&#x27;, sans-serif" font-size="28" font-weight="800" fill="#CC5752">× Observed failure</text><text x="540" y="1007" text-anchor="middle" font-family="&#x27;Baloo 2&#x27;, &#x27;Comic Neue&#x27;, &#x27;Chalkboard SE&#x27;, &#x27;Trebuchet MS&#x27;, sans-serif" font-size="30" font-weight="800" fill="#2B2D42">Five together → brief 3 / 2 exploration → reunite</text></g></svg>
