<svg width="1080" height="1080" viewBox="0 0 1080 1080" xmlns="http://www.w3.org/2000/svg"><g><rect x="0" y="0" width="1080" height="1080" fill="#FFF6E5"></rect><circle cx="20" cy="30" r="4" fill="#F0DDB8" opacity="0.7"></circle><circle cx="277" cy="427" r="6" fill="#F0DDB8" opacity="0.7"></circle><circle cx="534" cy="824" r="8" fill="#F0DDB8" opacity="0.7"></circle><circle cx="791" cy="401" r="4" fill="#F0DDB8" opacity="0.7"></circle><circle cx="1048" cy="798" r="6" fill="#F0DDB8" opacity="0.7"></circle><circle cx="265" cy="375" r="8" fill="#F0DDB8" opacity="0.7"></circle><circle cx="522" cy="772" r="4" fill="#F0DDB8" opacity="0.7"></circle><circle cx="779" cy="349" r="6" fill="#F0DDB8" opacity="0.7"></circle><circle cx="1036" cy="746" r="8" fill="#F0DDB8" opacity="0.7"></circle><circle cx="253" cy="323" r="4" fill="#F0DDB8" opacity="0.7"></circle><circle cx="510" cy="720" r="6" fill="#F0DDB8" opacity="0.7"></circle><circle cx="767" cy="297" r="8" fill="#F0DDB8" opacity="0.7"></circle><circle cx="1024" cy="694" r="4" fill="#F0DDB8" opacity="0.7"></circle><circle cx="241" cy="271" r="6" fill="#F0DDB8" opacity="0.7"></circle></g><text x="540" y="84" text-anchor="middle" font-family="&#x27;Baloo 2&#x27;, &#x27;Comic Neue&#x27;, &#x27;Chalkboard SE&#x27;, &#x27;Trebuchet MS&#x27;, sans-serif" font-size="56" font-weight="800" fill="#2B2D42">The solution tree</text><g><g opacity="0.72"><path d="M90 764 H157 V358 H203 L126 254 L49 358 H90Z" fill="#F6E4DE" stroke="#CC5752" stroke-width="4.5" stroke-linejoin="round"></path><text x="127" y="816" text-anchor="middle" font-family="&#x27;Baloo 2&#x27;, &#x27;Comic Neue&#x27;, &#x27;Chalkboard SE&#x27;, &#x27;Trebuchet MS&#x27;, sans-serif" font-size="31" font-weight="800" fill="#CC5752">Build parts</text><text x="127" y="851" text-anchor="middle" font-family="&#x27;Baloo 2&#x27;, &#x27;Comic Neue&#x27;, &#x27;Chalkboard SE&#x27;, &#x27;Trebuchet MS&#x27;, sans-serif" font-size="31" font-weight="800" fill="#CC5752">then integrate</text></g><g opacity="1"><path d="M540 289 L540 315.5 Q540 327.5 528 327.5 L357 327.5 Q345 327.5 345 339.5 L345 370" fill="none" stroke="#376CAD" stroke-width="2.5" stroke-linecap="round" stroke-linejoin="round" pathLength="1" stroke-dasharray="1" stroke-dashoffset="0"></path></g><g opacity="1"><path d="M540 289 L540 315.5 Q540 327.5 552 327.5 L723 327.5 Q735 327.5 735 339.5 L735 370" fill="none" stroke="#376CAD" stroke-width="2.5" stroke-linecap="round" stroke-linejoin="round" pathLength="1" stroke-dasharray="1" stroke-dashoffset="0"></path></g><g opacity="1"><path d="M345 450 L345 477 Q345 489 333 489 L277 489 Q265 489 265 501 L265 534" fill="none" stroke="#376CAD" stroke-width="2.5" stroke-linecap="round" stroke-linejoin="round" pathLength="1" stroke-dasharray="1" stroke-dashoffset="0"></path></g><g opacity="1"><path d="M345 450 L345 477 Q345 489 357 489 L428 489 Q440 489 440 501 L440 534" fill="none" stroke="#376CAD" stroke-width="2.5" stroke-linecap="round" stroke-linejoin="round" pathLength="1" stroke-dasharray="1" stroke-dashoffset="0"></path></g><g opacity="1"><path d="M735 450 L735 477 Q735 489 723 489 L647 489 Q635 489 635 501 L635 534" fill="none" stroke="#376CAD" stroke-width="2.5" stroke-linecap="round" stroke-linejoin="round" pathLength="1" stroke-dasharray="1" stroke-dashoffset="0"></path></g><g opacity="1"><path d="M735 450 L735 477 Q735 489 747 489 L798 489 Q810 489 810 501 L810 534" fill="none" stroke="#376CAD" stroke-width="2.5" stroke-linecap="round" stroke-linejoin="round" pathLength="1" stroke-dasharray="1" stroke-dashoffset="0"></path></g><g opacity="1"><path d="M810 602 L810 641 Q810 653 798 653 L732 653 Q720 653 720 665 L720 704" fill="none" stroke="#376CAD" stroke-width="2.5" stroke-linecap="round" stroke-linejoin="round" pathLength="1" stroke-dasharray="1" stroke-dashoffset="0"></path></g><g opacity="1"><path d="M810 602 L810 641 Q810 653 822 653 L888 653 Q900 653 900 665 L900 704" fill="none" stroke="#376CAD" stroke-width="2.5" stroke-linecap="round" stroke-linejoin="round" pathLength="1" stroke-dasharray="1" stroke-dashoffset="0"></path></g><g opacity="1"><g><rect x="425" y="206" width="240" height="88" rx="17" fill="#F0DDB8" opacity="0.55"></rect><rect x="420" y="201" width="240" height="88" rx="17" fill="#FFFDF7" stroke="#376CAD" stroke-width="4.5"></rect><text x="540" y="257" text-anchor="middle" font-family="&#x27;Baloo 2&#x27;, &#x27;Comic Neue&#x27;, &#x27;Chalkboard SE&#x27;, &#x27;Trebuchet MS&#x27;, sans-serif" font-size="37" font-weight="800" fill="#2B2D42">User result</text></g></g><g opacity="1"><g><rect x="245" y="375" width="210" height="80" rx="17" fill="#F0DDB8" opacity="0.55"></rect><rect x="240" y="370" width="210" height="80" rx="17" fill="#FFFDF7" stroke="#376CAD" stroke-width="4.5"></rect><text x="345" y="414" text-anchor="middle" font-family="&#x27;Baloo 2&#x27;, &#x27;Comic Neue&#x27;, &#x27;Chalkboard SE&#x27;, &#x27;Trebuchet MS&#x27;, sans-serif" font-size="33" font-weight="800" fill="#2B2D42">Front end</text></g></g><g opacity="1"><g><rect x="635" y="375" width="210" height="80" rx="17" fill="#F0DDB8" opacity="0.55"></rect><rect x="630" y="370" width="210" height="80" rx="17" fill="#FFFDF7" stroke="#376CAD" stroke-width="4.5"></rect><text x="735" y="414" text-anchor="middle" font-family="&#x27;Baloo 2&#x27;, &#x27;Comic Neue&#x27;, &#x27;Chalkboard SE&#x27;, &#x27;Trebuchet MS&#x27;, sans-serif" font-size="33" font-weight="800" fill="#2B2D42">Back end</text></g></g><g opacity="1"><g><rect x="215" y="539" width="110" height="68" rx="17" fill="#F0DDB8" opacity="0.55"></rect><rect x="210" y="534" width="110" height="68" rx="17" fill="#FFFDF7" stroke="#376CAD" stroke-width="4.5"></rect><text x="265" y="572" text-anchor="middle" font-family="&#x27;Baloo 2&#x27;, &#x27;Comic Neue&#x27;, &#x27;Chalkboard SE&#x27;, &#x27;Trebuchet MS&#x27;, sans-serif" font-size="33" font-weight="800" fill="#2B2D42"></text></g></g><g opacity="0.34"><g><rect x="390" y="539" width="110" height="68" rx="17" fill="#F0DDB8" opacity="0.55"></rect><rect x="385" y="534" width="110" height="68" rx="17" fill="#FFFDF7" stroke="#376CAD" stroke-width="4.5"></rect><text x="440" y="572" text-anchor="middle" font-family="&#x27;Baloo 2&#x27;, &#x27;Comic Neue&#x27;, &#x27;Chalkboard SE&#x27;, &#x27;Trebuchet MS&#x27;, sans-serif" font-size="33" font-weight="800" fill="#2B2D42"></text></g></g><g opacity="0.34"><g><rect x="585" y="539" width="110" height="68" rx="17" fill="#F0DDB8" opacity="0.55"></rect><rect x="580" y="534" width="110" height="68" rx="17" fill="#FFFDF7" stroke="#376CAD" stroke-width="4.5"></rect><text x="635" y="572" text-anchor="middle" font-family="&#x27;Baloo 2&#x27;, &#x27;Comic Neue&#x27;, &#x27;Chalkboard SE&#x27;, &#x27;Trebuchet MS&#x27;, sans-serif" font-size="33" font-weight="800" fill="#2B2D42"></text></g></g><g opacity="1"><g><rect x="760" y="539" width="110" height="68" rx="17" fill="#F0DDB8" opacity="0.55"></rect><rect x="755" y="534" width="110" height="68" rx="17" fill="#FFFDF7" stroke="#376CAD" stroke-width="4.5"></rect><text x="810" y="572" text-anchor="middle" font-family="&#x27;Baloo 2&#x27;, &#x27;Comic Neue&#x27;, &#x27;Chalkboard SE&#x27;, &#x27;Trebuchet MS&#x27;, sans-serif" font-size="33" font-weight="800" fill="#2B2D42"></text></g></g><g opacity="1"><g><rect x="672.5" y="709" width="105" height="68" rx="17" fill="#F0DDB8" opacity="0.55"></rect><rect x="667.5" y="704" width="105" height="68" rx="17" fill="#FFFDF7" stroke="#376CAD" stroke-width="4.5"></rect><text x="720" y="742" text-anchor="middle" font-family="&#x27;Baloo 2&#x27;, &#x27;Comic Neue&#x27;, &#x27;Chalkboard SE&#x27;, &#x27;Trebuchet MS&#x27;, sans-serif" font-size="33" font-weight="800" fill="#2B2D42"></text></g></g><g opacity="1"><g><rect x="852.5" y="709" width="105" height="68" rx="17" fill="#F0DDB8" opacity="0.55"></rect><rect x="847.5" y="704" width="105" height="68" rx="17" fill="#FFFDF7" stroke="#376CAD" stroke-width="4.5"></rect><text x="900" y="742" text-anchor="middle" font-family="&#x27;Baloo 2&#x27;, &#x27;Comic Neue&#x27;, &#x27;Chalkboard SE&#x27;, &#x27;Trebuchet MS&#x27;, sans-serif" font-size="33" font-weight="800" fill="#2B2D42"></text></g></g><g opacity="1"><path d="M460 289 L460 316 Q460 328 448 328 L267 328 Q255 328 255 340 L255 445 L255 491 Q255 503 243 503 L242 503 Q230 503 230 515 L230 568 L230 515 Q230 503 242 503 L243 503 Q255 503 255 491 L255 457 Q255 445 267 445 L813 445 Q825 445 825 457 L825 638 Q825 650 837 650 L888 650 Q900 650 900 662 L900 738" fill="none" stroke="#28855D" stroke-width="8" stroke-linecap="round" stroke-linejoin="round" pathLength="1" stroke-dasharray="1" stroke-dashoffset="0"></path></g><g opacity="1"><circle cx="900" cy="738" r="12" fill="#28855D" stroke="#2B2D42" stroke-width="3"></circle><g opacity="1"><path d="M660 245 H810" fill="none" stroke="#28855D" stroke-width="5.5" stroke-linecap="round" stroke-linejoin="round" pathLength="1" stroke-dasharray="1" stroke-dashoffset="0"></path></g><circle cx="843" cy="245" r="29" fill="#D3E9DD" stroke="#28855D" stroke-width="6"></circle><text x="843" y="257" text-anchor="middle" font-family="&#x27;Baloo 2&#x27;, &#x27;Comic Neue&#x27;, &#x27;Chalkboard SE&#x27;, &#x27;Trebuchet MS&#x27;, sans-serif" font-size="34" font-weight="800" fill="#28855D">T</text><text x="843" y="181" text-anchor="middle" font-family="&#x27;Baloo 2&#x27;, &#x27;Comic Neue&#x27;, &#x27;Chalkboard SE&#x27;, &#x27;Trebuchet MS&#x27;, sans-serif" font-size="31" font-weight="800" fill="#28855D">End-to-end</text><text x="843" y="216" text-anchor="middle" font-family="&#x27;Baloo 2&#x27;, &#x27;Comic Neue&#x27;, &#x27;Chalkboard SE&#x27;, &#x27;Trebuchet MS&#x27;, sans-serif" font-size="31" font-weight="800" fill="#28855D">test</text></g><g opacity="1"><g opacity="1"><path d="M840 410 H920 M800 450 V520 M800 602 V660 Q800 672 788 672 H732 Q720 672 720 684 V704 M800 672 H888 Q900 672 900 684 V704" fill="none" stroke="#28855D" stroke-width="4.5" stroke-linecap="round" stroke-linejoin="round" pathLength="1" stroke-dasharray="1" stroke-dashoffset="0"></path></g><circle cx="956" cy="410" r="27" fill="#D3E9DD" stroke="#28855D" stroke-width="6"></circle><text x="956" y="422" text-anchor="middle" font-family="&#x27;Baloo 2&#x27;, &#x27;Comic Neue&#x27;, &#x27;Chalkboard SE&#x27;, &#x27;Trebuchet MS&#x27;, sans-serif" font-size="33" font-weight="800" fill="#28855D">T</text><text x="960" y="483" text-anchor="middle" font-family="&#x27;Baloo 2&#x27;, &#x27;Comic Neue&#x27;, &#x27;Chalkboard SE&#x27;, &#x27;Trebuchet MS&#x27;, sans-serif" font-size="30" font-weight="800" fill="#28855D">Internal</text><text x="960" y="515" text-anchor="middle" font-family="&#x27;Baloo 2&#x27;, &#x27;Comic Neue&#x27;, &#x27;Chalkboard SE&#x27;, &#x27;Trebuchet MS&#x27;, sans-serif" font-size="30" font-weight="800" fill="#28855D">test</text></g><text x="530" y="840" text-anchor="middle" font-family="&#x27;Baloo 2&#x27;, &#x27;Comic Neue&#x27;, &#x27;Chalkboard SE&#x27;, &#x27;Trebuchet MS&#x27;, sans-serif" font-size="33" font-weight="800" fill="#28855D">One result pulls its needed path.</text></g><text x="540" y="978" text-anchor="middle" font-family="&#x27;Baloo 2&#x27;, &#x27;Comic Neue&#x27;, &#x27;Chalkboard SE&#x27;, &#x27;Trebuchet MS&#x27;, sans-serif" font-size="31" font-weight="800" fill="#2B2D42">One observed outcome pulls the structure it needs.</text></svg>
